<svg xmlns="http://www.w3.org/2000/svg" width="120" height="29" fill="none" viewBox="0 0 120 29">
  <g clip-path="url(#a)">
    <path fill="#FF8522" d="M28.002 9.687c1.27-.103 2.496-.725 2.55-2.049.034-.889-.686-1.785-2.081-1.815a3.031 3.031 0 0 0-1.978.602 2.05 2.05 0 0 0-.723 1.227c-.126.572-.038 1.05.255 1.41.377.467 1.09.687 1.977.617"/>
    <path fill="#FF8522" d="M64.598 10.437c-.166.417-.53.84-.86.91l-.155.044s.104-.903.101-1.174c-.027-1.226-.36-2.5-2.275-2.318-1.173.112-2.848 1.206-3.027 3.418v.027a.158.158 0 0 0 .002.046c-.264.778-.757 1.88-1.134 1.936a.265.265 0 0 1-.219-.072.398.398 0 0 1-.117-.306c.03-.362.09-.72.183-1.072.141-.614.233-1.24.274-1.869.084-1.508-.85-1.77-1.797-1.662a2.653 2.653 0 0 0-1.515.74l-.328.405s.128-.75.166-.954l-2.142.157-.632 3.081a1.908 1.908 0 0 1-.906.756l-.14.04-.022-.156a3.59 3.59 0 0 0-.09-.46c-.062-.338-.41-1.5-1.545-1.36-2.937.361-2.71 3.995-.973 3.419l.205-.071-.03.208c-.174 1.452-.777 2.249-1.614 2.396a.415.415 0 0 1-.346-.1.955.955 0 0 1-.25-.708c-.016-.712 1.172-6.69 1.172-6.69l-2.727.208c-.114.544-.588 2.925-.587 2.931l-.074.308c-.094.406-.157.672-.185.953v.014c0 .019-.014.036-.02.052-.388 1.135-1.088 2.368-1.66 2.462a.353.353 0 0 1-.291-.083.442.442 0 0 1-.14-.33l.028-.49s1.248-5.357 1.335-5.71c-.324.025-3.11.18-3.11.18l-.241.976c-.105-.788-1.802-1.78-3.003-.608-1.273 1.242-1.568 3.037-1.697 4.799l-.02.064c-.201 2.129-.632 3.598-2.098 3.844a1.283 1.283 0 0 1-.856-.075 3.82 3.82 0 0 0 1.009-1.143c.51-.93.232-1.715-.35-2.062-1.17-.71-2.378.261-2.56 1.427a2.32 2.32 0 0 0 .391 1.646c-.381.245-.692.498-1.228.595a.886.886 0 0 1-.785-.207c-.343-.427.042-1.864.1-2.043 0 0 1.782-6.083 1.887-6.46-.353.03-4.068.3-4.25.315-.111.379-.522 1.874-.96 3.24-.855 2.69-3.473 6.409-6.293 7.263-1.499.449-2.681.426-3.453-.008-1.048-.597-1.688-2.079-1.377-4.203a9.874 9.874 0 0 1 .811-2.937c2.192-5.156 6.073-4.162 5.854-3.772a4.34 4.34 0 0 0-.72.354c-.599.357-1.544 1.353-1.54 2.535.005.768.238 1.377.66 1.767a2.069 2.069 0 0 0 1.704.456 2.998 2.998 0 0 0 2.675-3.068c-.002-.921-.288-1.65-.84-2.188-.883-.849-1.892-1.256-4.114-1.108-3.404.224-8.517 2.878-9.806 8.355-.434 1.854.317 4.035 1.453 4.997 1.576 1.334 3.485 1.783 6.77 1.027 2.93-.67 5.273-2.773 6.975-4.957 0 .036.001.069-.01.1-.358 1.563.28 3.194 2.852 2.758a9.904 9.904 0 0 0 4.238-1.96c.633.506 1.674.79 2.881.556.485-.094 1.732-.478 2.778-2.102.825-1.288 1.167-3.752 1.36-5.07.034-.407.112-.808.234-1.196a.84.84 0 0 1 .37-.466c.454-.217.711.238.634.575a359.47 359.47 0 0 1-.492 2.038l-.08.27c-.253.834-.536 1.77-.521 2.76.016.72.22 1.282.612 1.616.357.32.864.428 1.456.313 1.616-.306 2.71-1.995 3.217-2.971l.07-.137.109-.194.076.358c.314 1.43 1.467 1.962 3.159 1.644 2.197-.41 3.482-1.61 3.803-3.606l.014-.085.082-.033c.211-.088.41-.201.593-.338l.163-.122-.668 3.224c.313-.063 2.373-.487 2.538-.516.035-.207.789-4.095.789-4.095.131-.678.511-1.972 1.003-2.018a.305.305 0 0 1 .267.095.718.718 0 0 1 .187.499c-.026.492-.109.98-.246 1.454-.187.75-.308 1.514-.362 2.285-.072 1.345 1.065 1.296 1.388 1.233.804-.149 1.85-.603 2.674-2.631l.059.205a1.974 1.974 0 0 0 2.311 1.514 3.212 3.212 0 0 0 2.55-2.127l.03-.09.077-.016c.5-.072 1.17-.677 1.316-1.36a1.774 1.774 0 0 0-.16-.294m-33.6 5.55c.461.004.654.277.418.843-.22.42-.53.788-.907 1.078-.608-.882-.089-1.92.488-1.922Zm16.833-3.075a.81.81 0 0 1-.546.275c-.299.061-.377-.1-.397-.168-.07-.266.19-.707.449-.839a.342.342 0 0 1 .358.005c.224.232.136.717.136.717m14.028-.666c-.16.559-.387 1.162-.878 1.242a.467.467 0 0 1-.416-.086c-.175-.15-.248-.284-.258-.785-.027-1.181.485-4.15 1.316-4.215a.36.36 0 0 1 .309.121c.182.184.267.555.242.99l.001.054s-.872.07-.912 1.379a1.278 1.278 0 0 0 .636 1.128l-.04.172Zm.204-.88c-.294-.17-.301-.682-.153-.876a.207.207 0 0 1 .257-.082c.003.322-.032.644-.104.958Z"/>
    <path fill="#FF8522" d="M27.684.912c-3.154.199-5.3 2.375-6.314 3.663a13.282 13.282 0 0 0-6.9-.089c-2.33.585-5.665 1.936-8.056 4.017C2.211 12.167.096 16.5.458 20.695.67 23.19 1.9 25.303 4.004 26.801c3.427 2.432 8.78 1.663 10.93 1.21 2.265-.478 38.586-8.443 43.454-9.57 4.53-1.051 8.822-2.78 9.497-8.31.036-.336.051-.674.045-1.012-.043-1.417-.538-2.733-1.353-3.606-1.498-1.605-3.819-1.712-5.436-1.654-1.288.046-10.543.57-26.777 1.51a5.643 5.643 0 0 0-1.368-2.61c-.89-.937-2.53-2.011-5.305-1.838m-5.873 4.308c.931-1.263 2.942-3.379 5.92-3.57 2.48-.159 3.937.787 4.72 1.606a4.895 4.895 0 0 1 1.256 2.55l.055.326.328-.02c2.551-.143 24.976-1.45 27.08-1.522 1.468-.052 3.573.034 4.863 1.413.683.74 1.104 1.862 1.152 3.078l.002.054c.011.3-.002.602-.04.901-.615 5.075-4.657 6.686-8.932 7.678-4.775 1.104-41.118 9.08-43.44 9.563-2.06.428-7.163 1.18-10.342-1.087-1.934-1.374-3.052-3.298-3.246-5.564-.341-3.96 1.679-8.067 5.71-11.578 2.284-1.996 5.498-3.286 7.744-3.844a12.54 12.54 0 0 1 6.759.144l.254.077.157-.205Z"/>
  </g>
  <g clip-path="url(#b)">
    <path fill="#FEFEFE" d="M68.572 13.546c-.182.182-.182.456 0 .593.183.183.457.183.594 0 .182-.182.182-.456 0-.593-.183-.183-.457-.183-.594 0Z"/>
    <path fill="#00985F" d="M72.771 13.272h-1.825l-.457.548c-.09.09-.045.136.046.182l.593.274 1.689-.776c.137-.046.09-.228-.046-.228Zm-6.8 8.944h-2.235c-.593.365-.776.456-1.552.776-.045 0-.09.09-.045.136l2.008 5.613h1.14l-1.825-5.156c1.187 0 4.061-.32 5.613-2.83-.502.73-1.643 1.46-3.103 1.46Zm3.195-8.077c-.182.183-.456.183-.593 0-.183-.182-.183-.456 0-.593.182-.183.456-.183.593 0-.365-.365-.958-.365-1.278 0-.319.365-.365.912 0 1.277.365.365.959.365 1.278 0 .32-.365.365-.912 0-1.277a.48.48 0 0 1 0 .593ZM64.74 24.36l1.551 4.381h1.141l-1.643-4.609c-.273.092-.639.137-1.05.228Zm1.551-5.475c.137-.183.228-.365.365-.594-.045-.045-.09 0-.137.046-2.327 2.464-4.563 2.784-6.297 2.784h-2.646c-.092 0-.137-.092-.092-.183 2.054-2.83 4.29-5.065 5.978-6.48l-4.426 3.697c-.365.273-.776.456-1.324.456h-5.567c-.137 0-.09.137-.09.228.364 1.187 1.46 2.282 3.285 2.282l-1.324 1.323c-.045.046-.045.183.092.183h4.974c3.559 0 5.795-1.552 7.21-3.742Z"/>
    <path fill="#DC000F" d="M115.94 28.741h4.061V16.192h-4.061v4.61h-3.833v-4.61h-4.062v12.55h4.062v-4.746h3.833v4.745ZM67.89 14.824a.882.882 0 0 1 0-1.278c.364-.365.958-.365 1.277 0 .32.365.365.913 0 1.278s-.958.365-1.278 0Zm1.14 5.932c1.552-2.51 2.1-6.48 2.1-6.48l-.594-.274c-.091-.045-.091-.091-.046-.182l.457-.548c-.274-.547-1.278-1.46-2.738-1.46-.867 0-1.643.228-2.328.684 0 0-1.003.685-2.418 1.917-1.688 1.46-3.924 3.65-5.978 6.48-.045.09 0 .182.092.182h2.646c1.734 0 3.97-.32 6.297-2.783.046-.046.092-.046.137-.046.046.046.046.091.046.137-.365.913-1.278 2.692-2.966 3.787h2.236c1.506 0 2.6-.684 3.057-1.414Zm-2.281 3.011 1.734 4.929h4.928c-1.004-3.058-2.1-5.887-3.149-8.488-.821 1.78-1.597 2.647-3.513 3.56ZM51.78 28.741h4.974l1.688-5.247h-4.837c-.593 1.551-1.186 3.285-1.825 5.247Zm6.708-11.27L61 15.416c.547-1.46 1.095-2.92 1.643-4.153.273.64.547 1.324.821 2.008 1.369-1.14 2.236-1.825 3.377-2.145-.685-1.505-1.187-2.6-1.415-3.057h-5.567c-.456 1.004-2.236 4.7-4.335 9.674h2.008c.41 0 .73-.046.958-.274Zm30.756 9.856.274 1.369h3.285V16.192h-4.061v8.716c-.365.41-1.05.867-1.688.867-1.141 0-1.734-.639-1.734-1.825v-7.758h-4.062v8.716c-.365.41-1.14.867-1.825.867-1.05 0-1.643-.639-1.643-1.825v-7.758h-4.06v8.305c0 3.012 1.323 4.518 4.06 4.518 1.963 0 3.149-.73 4.062-1.688.639 1.14 1.78 1.688 3.468 1.688 1.962-.046 3.057-.73 3.924-1.688Zm12.914-2.464c-.365.41-.958.867-1.962.867-1.096 0-1.689-1.004-1.689-2.966 0-2.419.64-3.605 1.962-3.605.776 0 1.141.045 1.689.182v5.522Zm-3.377 4.106h.137c1.825 0 3.057-.638 3.742-1.642l.228 1.369h3.331V16.694c-1.323-.41-2.875-.775-5.704-.775-4.061 0-6.252 2.464-6.252 7.027 0 4.198 1.552 6.023 4.518 6.023Z"/>
  </g>
  <path fill="#fff" d="M118.717 8.7c.824.208 1.236.724 1.236 1.548 0 .56-.212.992-.636 1.296-.416.304-1.04.456-1.872.456h-3.06V5.64h2.952c.752 0 1.34.144 1.764.432.424.28.636.68.636 1.2 0 .336-.092.628-.276.876-.176.24-.424.424-.744.552Zm-3.204-.324h1.728c.44 0 .772-.08.996-.24.232-.16.348-.392.348-.696 0-.608-.448-.912-1.344-.912h-1.728v1.848Zm1.848 2.736c.48 0 .84-.076 1.08-.228.24-.152.36-.388.36-.708 0-.328-.112-.572-.336-.732-.216-.16-.56-.24-1.032-.24h-1.92v1.908h1.848Zm-6.374-5.472h1.152V12h-1.152V5.64Zm.576-1.224a.789.789 0 0 1-.564-.216.718.718 0 0 1-.216-.528c0-.208.072-.384.216-.528a.766.766 0 0 1 .564-.228c.224 0 .408.072.552.216a.662.662 0 0 1 .228.516c0 .216-.076.4-.228.552a.748.748 0 0 1-.552.216ZM107.947 8.7c.824.208 1.236.724 1.236 1.548 0 .56-.212.992-.636 1.296-.416.304-1.04.456-1.872.456h-3.06V5.64h2.952c.752 0 1.34.144 1.764.432.424.28.636.68.636 1.2 0 .336-.092.628-.276.876-.176.24-.424.424-.744.552Zm-3.204-.324h1.728c.44 0 .772-.08.996-.24.232-.16.348-.392.348-.696 0-.608-.448-.912-1.344-.912h-1.728v1.848Zm1.848 2.736c.48 0 .84-.076 1.08-.228.24-.152.36-.388.36-.708 0-.328-.112-.572-.336-.732-.216-.16-.56-.24-1.032-.24h-1.92v1.908h1.848Zm-7.341 1.032c-.905 0-1.6-.22-2.089-.66-.48-.44-.72-1.064-.72-1.872V5.64h1.152V8.1c.208-.208.488-.368.84-.48.36-.12.748-.18 1.164-.18.792 0 1.408.2 1.848.6.44.4.66.952.66 1.656 0 .76-.252 1.36-.756 1.8-.504.432-1.204.648-2.1.648Zm.011-.876c.52 0 .928-.14 1.224-.42.296-.28.444-.656.444-1.128 0-.448-.144-.8-.432-1.056-.288-.256-.692-.384-1.212-.384-.384 0-.724.076-1.02.228-.296.152-.52.364-.672.636v.564c0 .488.148.872.444 1.152.296.272.704.408 1.224.408Zm-8.364-7.764c.704 0 1.32.14 1.848.42.528.28.936.696 1.224 1.248.296.552.444 1.224.444 2.016V12H93.2V7.068c0-.816-.204-1.432-.612-1.848-.4-.424-.964-.636-1.692-.636s-1.296.212-1.704.636c-.408.416-.612 1.032-.612 1.848V12h-2.184l-.012-1.044h.996V7.188c0-.792.144-1.464.432-2.016a2.953 2.953 0 0 1 1.236-1.248c.528-.28 1.144-.42 1.848-.42Z"/>
  <defs>
    <clipPath id="a">
      <path fill="#fff" d="M0 1.544 67.715 0l.62 27.177L.62 28.72z"/>
    </clipPath>
    <clipPath id="b">
      <path fill="#fff" d="M51.781 8.07h68.22v20.899h-68.22z"/>
    </clipPath>
  </defs>
</svg>
